HIERARCHY
ROOT Hips
{
 OFFSET 0.000000 0.000000 0.000000
 CHANNELS 6 Xposition Yposition Zposition Yrotation Xrotation Zrotation
 JOINT Chest
 {
  OFFSET 0.000000 9.585900 0.002600
  CHANNELS 3 Yrotation Xrotation Zrotation
  JOINT Chest2
  {
   OFFSET 0.000000 9.601200 -0.005300
   CHANNELS 3 Yrotation Xrotation Zrotation
   JOINT Chest3
   {
    OFFSET 0.000000 9.561800 0.000000
    CHANNELS 3 Yrotation Xrotation Zrotation
    JOINT Chest4
    {
     OFFSET 0.000000 9.552100 0.000000
     CHANNELS 3 Yrotation Xrotation Zrotation
     JOINT Neck
     {
      OFFSET 0.000000 14.453000 0.000000
      CHANNELS 3 Yrotation Xrotation Zrotation
      JOINT Head
      {
       OFFSET 0.000000 8.936500 -0.011300
       CHANNELS 3 Yrotation Xrotation Zrotation
       End Site
       {
        OFFSET 0.000000 17.073600 -0.006000
       }
      }
     }
     JOINT RightCollar
     {
      OFFSET -2.921100 9.558500 0.000000
      CHANNELS 3 Yrotation Xrotation Zrotation
      JOINT RightShoulder
      {
       OFFSET -13.519700 0.000000 0.000000
       CHANNELS 3 Yrotation Xrotation Zrotation
       JOINT RightElbow
       {
        OFFSET 0.000000 -29.696600 0.000000
        CHANNELS 3 Yrotation Xrotation Zrotation
        JOINT RightWrist
        {
         OFFSET 0.000000 -24.004700 0.000000
         CHANNELS 3 Yrotation Xrotation Zrotation
         End Site
         {
          OFFSET 0.000000 -17.728500 0.000000
         }
        }
       }
      }
     }
     JOINT LeftCollar
     {
      OFFSET 2.921100 9.558500 0.000000
      CHANNELS 3 Yrotation Xrotation Zrotation
      JOINT LeftShoulder
      {
       OFFSET 13.519700 0.000000 0.000000
       CHANNELS 3 Yrotation Xrotation Zrotation
       JOINT LeftElbow
       {
        OFFSET 0.000000 -29.696600 0.000000
        CHANNELS 3 Yrotation Xrotation Zrotation
        JOINT LeftWrist
        {
         OFFSET 0.000000 -24.004700 0.000000
         CHANNELS 3 Yrotation Xrotation Zrotation
         End Site
         {
          OFFSET 0.000000 -17.728500 0.000000
         }
        }
       }
      }
     }
    }
   }
  }
 }
 JOINT RightHip
 {
  OFFSET -7.771700 -0.012900 -0.001300
  CHANNELS 3 Yrotation Xrotation Zrotation
  JOINT RightKnee
  {
   OFFSET 0.000000 -40.869800 0.001200
   CHANNELS 3 Yrotation Xrotation Zrotation
   JOINT RightAnkle
   {
    OFFSET 0.000000 -39.717900 0.002100
    CHANNELS 3 Yrotation Xrotation Zrotation
    JOINT RightToe
    {
     OFFSET 0.000000 -4.965400 11.033500
     CHANNELS 3 Yrotation Xrotation Zrotation
     End Site
     {
      OFFSET 0.000000 -1.423100 5.872300
     }
    }
   }
  }
 }
 JOINT LeftHip
 {
  OFFSET 7.771700 -0.012900 -0.001300
  CHANNELS 3 Yrotation Xrotation Zrotation
  JOINT LeftKnee
  {
   OFFSET 0.000000 -40.869800 0.001200
   CHANNELS 3 Yrotation Xrotation Zrotation
   JOINT LeftAnkle
   {
    OFFSET 0.000000 -39.717900 0.002100
    CHANNELS 3 Yrotation Xrotation Zrotation
    JOINT LeftToe
    {
     OFFSET 0.000000 -4.965400 11.033500
     CHANNELS 3 Yrotation Xrotation Zrotation
     End Site
     {
      OFFSET 0.000000 -1.423100 5.872300
     }
    }
   }
  }
 }
}
MOTION
Frames: 7
Frame Time: 0.008333
-67.706142 57.542795 8.313280 159.326099 -7.603528 0.169858 2.976825 7.801588 1.407605 0.181550 0.399166 0.032331 0.285897 0.698211 0.053665 2.681751 7.432625 0.686692 3.352411 16.288641 -3.667904 7.505889 -5.202128 -7.981169 6.472474 1.175111 -2.382024 5.942632 -25.866053 -19.981021 -156.772194 -64.181644 -178.539906 -4.005569 -1.264594 -28.644749 -7.961247 2.316916 1.220540 17.589736 -14.796735 1.966984 163.250828 -55.202964 177.415948 3.107970 -7.930975 24.808856 -11.470579 -64.472944 8.333795 -37.412000 71.136910 -38.675171 -3.294692 -6.984254 -0.507283 -0.259740 0.780137 -0.151751 2.743190 -66.987189 16.291151 40.388909 65.603034 33.617264 -18.282386 -9.232075 4.258673 -0.177581 -0.871914 -0.139759
-67.703741 57.540579 8.314441 159.369300 -7.625987 0.180367 3.066870 7.824890 1.427478 0.142857 0.400905 0.027991 0.268267 0.701004 0.051739 2.661702 7.438738 0.682838 3.694101 16.306844 -3.833875 8.101789 -5.143749 -8.388554 6.704104 1.032084 -2.474177 6.259491 -26.460610 -20.407312 -157.170613 -63.839100 -178.087857 -3.873117 -1.500778 -28.193126 -7.984915 2.085628 1.282394 17.344260 -15.475233 2.026036 163.447871 -54.969648 177.124611 3.112496 -8.050374 24.353036 -11.496273 -64.453502 8.291844 -37.451860 71.145249 -38.693405 -3.280935 -7.007805 -0.524359 -0.248079 0.786074 -0.146662 2.670903 -66.962838 16.284823 40.415336 65.588618 33.646239 -18.254108 -9.222989 4.249146 -0.197900 -0.886960 -0.131745
-67.704436 57.538758 8.315647 159.387541 -7.627257 0.208368 3.124323 7.825200 1.421583 0.145311 0.403678 0.028057 0.222614 0.701997 0.043684 2.746102 7.460970 0.691772 3.993592 16.306362 -4.003230 8.762822 -5.078572 -8.814360 6.866150 0.874277 -2.580490 6.555550 -27.016790 -20.810118 -157.638641 -63.515776 -177.588138 -3.753589 -1.685367 -27.814610 -8.072808 1.836940 1.360281 17.124017 -16.086639 2.100583 163.595114 -54.742376 176.878450 3.123425 -8.151827 23.915433 -11.485715 -64.457358 8.226604 -37.409646 71.163085 -38.650449 -3.240067 -7.022228 -0.512157 -0.284127 0.793249 -0.162647 2.669533 -66.961426 16.236622 40.453737 65.576928 33.686185 -18.245143 -9.205305 4.235949 -0.210757 -0.904002 -0.130066
-67.700368 57.538751 8.309885 159.443331 -7.663118 0.217453 3.095416 7.859920 1.416864 0.159255 0.404429 0.031019 0.214210 0.704234 0.040893 2.812794 7.475845 0.698871 4.325722 16.309513 -4.174819 9.479852 -5.003632 -9.252281 7.040337 0.721287 -2.697630 6.835241 -27.523335 -21.190295 -158.176768 -63.214769 -177.047659 -3.660881 -1.823993 -27.534792 -8.145203 1.604483 1.452444 16.924775 -16.626979 2.186129 163.719955 -54.510331 176.663019 3.128516 -8.219499 23.522241 -11.508504 -64.425404 8.173286 -37.486645 71.184608 -38.701578 -3.245922 -7.058152 -0.530492 -0.260471 0.794880 -0.156841 2.594086 -66.926745 16.222961 40.514598 65.563477 33.749265 -18.219195 -9.193649 4.230652 -0.232729 -0.920108 -0.134830
-67.697320 57.539562 8.303853 159.479036 -7.683231 0.234497 3.082763 7.879244 1.405511 0.176498 0.405687 0.036138 0.226228 0.706012 0.041501 2.790420 7.478923 0.692003 4.731834 16.321415 -4.346158 10.241517 -4.916963 -9.694393 7.274733 0.578388 -2.823658 7.108784 -27.972802 -21.553110 -158.760654 -62.939997 -176.503149 -3.607265 -1.929286 -27.356046 -8.154526 1.399743 1.561143 16.743932 -17.095024 2.279413 163.835800 -54.262058 176.477130 3.123151 -8.237849 23.183964 -11.498922 -64.409633 8.112092 -37.521458 71.201588 -38.726320 -3.240397 -7.075891 -0.536872 -0.261906 0.792521 -0.150472 2.588441 -66.910855 16.169283 40.546780 65.560490 33.794572 -18.197216 -9.180405 4.233138 -0.238442 -0.941598 -0.138205
-67.693869 57.541326 8.296829 159.509106 -7.695319 0.251895 3.089694 7.890969 1.401892 0.185130 0.406426 0.036894 0.249183 0.707450 0.046251 2.747194 7.480528 0.679397 5.143129 16.331469 -4.518296 11.031897 -4.820240 -10.130099 7.507088 0.436304 -2.959587 7.385911 -28.355747 -21.905922 -159.355962 -62.689210 -175.997911 -3.583778 -2.010324 -27.260961 -8.163764 1.210003 1.688646 16.572854 -17.489858 2.379762 163.963786 -53.996593 176.318612 3.109798 -8.204778 22.897670 -11.478498 -64.403389 8.048267 -37.557710 71.221485 -38.752989 -3.231411 -7.088014 -0.537857 -0.268545 0.785109 -0.145881 2.598213 -66.901727 16.113094 40.564216 65.562454 33.822939 -18.175689 -9.171758 4.242255 -0.242662 -0.959572 -0.145567
-67.691802 57.543489 8.291755 159.533746 -7.680177 0.273914 3.126552 7.876445 1.401477 0.156786 0.405471 0.026359 0.222673 0.707574 0.042012 2.780065 7.478669 0.675332 5.542114 16.341990 -4.683536 11.834914 -4.717610 -10.549293 7.714276 0.300146 -3.096764 7.679420 -28.670029 -22.254348 -159.936990 -62.457050 -175.561553 -3.570044 -2.064160 -27.222483 -8.185216 1.031512 1.840267 16.400443 -17.812624 2.489563 164.118740 -53.718264 176.180839 3.089100 -8.123635 22.667861 -11.448852 -64.425694 7.983704 -37.576840 71.235915 -38.764079 -3.225873 -7.084582 -0.536186 -0.272369 0.771625 -0.144803 2.629763 -66.917559 16.044072 40.578276 65.562139 33.840287 -18.154464 -9.161350 4.259549 -0.242194 -0.975984 -0.154630
